<svg xmlns="http://www.w3.org/2000/svg" xmlns:xlink="http://www.w3.org/1999/xlink" width="16" height="16" id="lock"><defs><linearGradient id="c" x1="-869" x2="-863" y1="987.996" y2="987.996" gradientUnits="userSpaceOnUse" xlink:href="#a"></linearGradient><linearGradient id="a"><stop offset="0" stop-color="#485960"></stop><stop offset="1" stop-color="#323e42"></stop></linearGradient><linearGradient id="d" x1="-870.5" x2="-861.5" y1="992.862" y2="992.862" gradientUnits="userSpaceOnUse" xlink:href="#b"></linearGradient><linearGradient id="b"><stop offset="0" stop-color="#fcd635"></stop><stop offset="1" stop-color="#f7c028"></stop></linearGradient><linearGradient id="e" x1="-683.84" x2="-681.84" y1="56.349" y2="56.349" gradientUnits="userSpaceOnUse" xlink:href="#a"></linearGradient></defs><g transform="translate(873.5 -983.362)"><path d="M-866 985.111c-1.55 0-3 1.152-3 2.973v2.29a.5.5 0 1 0 1 0v-2.29c0-1.322.904-1.973 2-1.973 1.202 0 2 .72 2 1.973v2.287a.5.5 0 1 0 1 0v-2.287c0-1.73-1.341-2.973-3-2.973z" style="line-height:normal;text-indent:0;text-align:start;text-decoration-line:none;text-decoration-style:solid;text-decoration-color:#000;text-transform:none;block-progression:tb;white-space:normal;isolation:auto;mix-blend-mode:normal;solid-color:#000;solid-opacity:1" fill="url(#c)" color="#000" enable-background="accumulate" font-family="sans-serif" font-weight="400" overflow="visible"></path><circle cx="-866" cy="992.862" r="4.5" fill="url(#d)"></circle><path fill="url(#e)" d="M-682.84 54.346c-.554 0-1 .446-1 1 0 .277.11.528.291.709.06.06.136.097.21.14v1.65a.5.5 0 1 0 1 0v-1.652c.071-.042.147-.08.206-.138a1 1 0 0 0-.707-1.71z" transform="translate(-183.16 937.016)"></path></g></svg>